<?xml version="1.0" encoding="UTF-8" standalone="no"?>
<!DOCTYPE svg PUBLIC "-//W3C//DTD SVG 1.1//EN"
 "http://www.w3.org/Graphics/SVG/1.1/DTD/svg11.dtd">
<!-- Generated by graphviz version 2.40.1 (20161225.0304)
 -->
<!-- Title: G Pages: 1 -->
<svg width="360pt" height="872pt"
 viewBox="0.00 0.00 359.50 872.00" xmlns="http://www.w3.org/2000/svg" xmlns:xlink="http://www.w3.org/1999/xlink">
<g id="graph0" class="graph" transform="scale(1 1) rotate(0) translate(4 868)">
<title>G</title>
<polygon fill="#ffffff" stroke="transparent" points="-4,4 -4,-868 355.5,-868 355.5,4 -4,4"/>
<!-- A0 -->
<g id="node1" class="node">
<title>A0</title>
<polygon fill="none" stroke="#000000" points="171.5,-838 117.5,-838 117.5,-802 171.5,-802 171.5,-838"/>
<text text-anchor="middle" x="144.5" y="-817" font-family="Helvetica,sans-Serif" font-size="10.00" fill="#000000">Client</text>
</g>
<!-- A1 -->
<g id="node2" class="node">
<title>A1</title>
<polygon fill="none" stroke="#000000" points="95.5,-682 95.5,-726 193.5,-726 193.5,-682 95.5,-682"/>
<text text-anchor="start" x="124.2185" y="-707" font-family="Helvetica,sans-Serif" font-size="10.00" fill="#000000">Producer</text>
<text text-anchor="start" x="105.3275" y="-695" font-family="Helvetica,sans-Serif" font-size="10.00" fill="#000000">(StrategyContext)</text>
<polygon fill="none" stroke="#000000" points="95.5,-650 95.5,-682 193.5,-682 193.5,-650 95.5,-650"/>
<text text-anchor="start" x="116.4455" y="-663" font-family="Helvetica,sans-Serif" font-size="10.00" fill="#000000">getNumber()</text>
</g>
<!-- A0&#45;&gt;A1 -->
<g id="edge1" class="edge">
<title>A0&#45;&gt;A1</title>
<path fill="none" stroke="#000000" d="M144.5,-801.9227C144.5,-782.5054 144.5,-751.0814 144.5,-726.1501"/>
</g>
<!-- A2 -->
<g id="node3" class="node">
<title>A2</title>
<polygon fill="none" stroke="#000000" points="83.5,-556 83.5,-600 205.5,-600 205.5,-556 83.5,-556"/>
<text text-anchor="start" x="93.09" y="-581" font-family="Helvetica,sans-Serif" font-size="10.00" fill="#000000">&lt;&lt;Strategy&#45;Interface&gt;&gt;</text>
<text text-anchor="start" x="126.1635" y="-569" font-family="Helvetica,sans-Serif" font-size="10.00" fill="#000000">Protocol</text>
<polygon fill="none" stroke="#000000" points="83.5,-512 83.5,-556 205.5,-556 205.5,-512 83.5,-512"/>
<text text-anchor="start" x="116.4455" y="-537" font-family="Helvetica,sans-Serif" font-size="10.00" fill="#000000">getNumber()</text>
<text text-anchor="start" x="130.058" y="-525" font-family="Helvetica,sans-Serif" font-size="10.00" fill="#000000">reset()</text>
</g>
<!-- A1&#45;&gt;A2 -->
<g id="edge2" class="edge">
<title>A1&#45;&gt;A2</title>
<path fill="none" stroke="#000000" d="M144.5,-637.7685C144.5,-628.7709 144.5,-619.358 144.5,-610.2533"/>
<polygon fill="none" stroke="#000000" points="144.5001,-637.8201 148.5,-643.8202 144.5,-649.8201 140.5,-643.8201 144.5001,-637.8201"/>
<polygon fill="#000000" stroke="#000000" points="144.5,-600.1433 149.0001,-610.1433 144.5,-605.1433 144.5001,-610.1433 144.5001,-610.1433 144.5001,-610.1433 144.5,-605.1433 140.0001,-610.1434 144.5,-600.1433 144.5,-600.1433"/>
</g>
<!-- A3 -->
<g id="node4" class="node">
<title>A3</title>
<polygon fill="none" stroke="#000000" points="92.5,-418 92.5,-462 196.5,-462 196.5,-418 92.5,-418"/>
<text text-anchor="start" x="131.723" y="-443" font-family="Helvetica,sans-Serif" font-size="10.00" fill="#000000">Serial</text>
<text text-anchor="start" x="102.273" y="-431" font-family="Helvetica,sans-Serif" font-size="10.00" fill="#000000">(StrategyConcrete)</text>
<polygon fill="none" stroke="#000000" points="92.5,-374 92.5,-418 196.5,-418 196.5,-374 92.5,-374"/>
<text text-anchor="start" x="116.4455" y="-399" font-family="Helvetica,sans-Serif" font-size="10.00" fill="#000000">getNumber()</text>
<text text-anchor="start" x="130.058" y="-387" font-family="Helvetica,sans-Serif" font-size="10.00" fill="#000000">reset()</text>
</g>
<!-- A2&#45;&gt;A3 -->
<g id="edge3" class="edge">
<title>A2&#45;&gt;A3</title>
<path fill="none" stroke="#000000" stroke-dasharray="5,2" d="M144.5,-501.638C144.5,-488.526 144.5,-474.6749 144.5,-462.0984"/>
<polygon fill="none" stroke="#000000" points="141.0001,-501.9565 144.5,-511.9565 148.0001,-501.9566 141.0001,-501.9565"/>
</g>
<!-- A4 -->
<g id="node5" class="node">
<title>A4</title>
<polygon fill="none" stroke="#000000" points=".5,-280 .5,-324 163.5,-324 163.5,-280 .5,-280"/>
<text text-anchor="start" x="10.0335" y="-305" font-family="Helvetica,sans-Serif" font-size="10.00" fill="#000000">&lt;&lt;DiscreteGeneratorInterface&gt;&gt;</text>
<text text-anchor="start" x="39.773" y="-293" font-family="Helvetica,sans-Serif" font-size="10.00" fill="#000000">IDiscreteGenerator</text>
<polygon fill="none" stroke="#000000" points=".5,-212 .5,-280 163.5,-280 163.5,-212 .5,-212"/>
<text text-anchor="start" x="53.9455" y="-261" font-family="Helvetica,sans-Serif" font-size="10.00" fill="#000000">getNumber()</text>
<text text-anchor="start" x="32.555" y="-249" font-family="Helvetica,sans-Serif" font-size="10.00" fill="#000000">setDistributionVector()</text>
<text text-anchor="start" x="23.937" y="-237" font-family="Helvetica,sans-Serif" font-size="10.00" fill="#000000">updateDistributionVector()</text>
<text text-anchor="start" x="32.2755" y="-225" font-family="Helvetica,sans-Serif" font-size="10.00" fill="#000000">getDistributionVector()</text>
</g>
<!-- A3&#45;&gt;A4 -->
<g id="edge4" class="edge">
<title>A3&#45;&gt;A4</title>
<path fill="none" stroke="#000000" d="M121.2154,-362.5605C117.2263,-353.0625 113.0481,-343.1146 108.9621,-333.3861"/>
<polygon fill="none" stroke="#000000" points="121.2918,-362.7426 127.3032,-366.7255 125.9387,-373.8064 119.9273,-369.8234 121.2918,-362.7426"/>
<polygon fill="#000000" stroke="#000000" points="105.0821,-324.1478 113.1034,-331.6251 107.0183,-328.7577 108.9545,-333.3676 108.9545,-333.3676 108.9545,-333.3676 107.0183,-328.7577 104.8055,-335.1102 105.0821,-324.1478 105.0821,-324.1478"/>
</g>
<!-- A5 -->
<g id="node6" class="node">
<title>A5</title>
<polygon fill="none" stroke="#000000" points="184.5,-286 184.5,-318 233.5,-318 233.5,-286 184.5,-286"/>
<text text-anchor="start" x="194.2725" y="-299" font-family="Helvetica,sans-Serif" font-size="10.00" fill="#000000">Range</text>
<polygon fill="none" stroke="#000000" points="184.5,-218 184.5,-286 233.5,-286 233.5,-218 184.5,-218"/>
<text text-anchor="start" x="199.277" y="-267" font-family="Helvetica,sans-Serif" font-size="10.00" fill="#000000">start</text>
<text text-anchor="start" x="200.6615" y="-255" font-family="Helvetica,sans-Serif" font-size="10.00" fill="#000000">end</text>
<text text-anchor="start" x="196.7725" y="-243" font-family="Helvetica,sans-Serif" font-size="10.00" fill="#000000">offset</text>
<text text-anchor="start" x="200.111" y="-231" font-family="Helvetica,sans-Serif" font-size="10.00" fill="#000000">size</text>
</g>
<!-- A3&#45;&gt;A5 -->
<g id="edge5" class="edge">
<title>A3&#45;&gt;A5</title>
<path fill="none" stroke="#000000" d="M168.2033,-362.4454C173.0371,-351.1162 178.1422,-339.1511 183.0344,-327.6849"/>
<polygon fill="none" stroke="#000000" points="168.0653,-362.769 169.3897,-369.8575 163.356,-373.8064 162.0315,-366.7179 168.0653,-362.769"/>
<polygon fill="#000000" stroke="#000000" points="187.0833,-318.1955 187.2978,-329.1593 185.121,-322.7944 183.1588,-327.3933 183.1588,-327.3933 183.1588,-327.3933 185.121,-322.7944 179.0198,-325.6273 187.0833,-318.1955 187.0833,-318.1955"/>
</g>
<!-- A6 -->
<g id="node7" class="node">
<title>A6</title>
<polygon fill="none" stroke="#000000" points="31.5,-118 31.5,-162 132.5,-162 132.5,-118 31.5,-118"/>
<text text-anchor="start" x="41.1625" y="-143" font-family="Helvetica,sans-Serif" font-size="10.00" fill="#000000">DiscreteGenerator</text>
<text text-anchor="start" x="58.3895" y="-131" font-family="Helvetica,sans-Serif" font-size="10.00" fill="#000000">(Concrete)</text>
<polygon fill="none" stroke="#000000" points="31.5,-86 31.5,-118 132.5,-118 132.5,-86 31.5,-86"/>
<text text-anchor="start" x="61.713" y="-99" font-family="Helvetica,sans-Serif" font-size="10.00" fill="#000000">as above</text>
</g>
<!-- A4&#45;&gt;A6 -->
<g id="edge6" class="edge">
<title>A4&#45;&gt;A6</title>
<path fill="none" stroke="#000000" stroke-dasharray="5,2" d="M81.5,-201.6925C81.5,-188.2172 81.5,-174.4743 81.5,-162.3677"/>
<polygon fill="none" stroke="#000000" points="78.0001,-201.9135 81.5,-211.9135 85.0001,-201.9135 78.0001,-201.9135"/>
</g>
<!-- A7 -->
<g id="node8" class="node">
<title>A7</title>
<polygon fill="none" stroke="#000000" points="119.8398,-36 43.1602,-36 43.1602,0 119.8398,0 119.8398,-36"/>
<text text-anchor="middle" x="81.5" y="-21" font-family="Helvetica,sans-Serif" font-size="10.00" fill="#000000">Engine</text>
<text text-anchor="middle" x="81.5" y="-9" font-family="Helvetica,sans-Serif" font-size="10.00" fill="#000000">(Singleton)</text>
</g>
<!-- A6&#45;&gt;A7 -->
<g id="edge7" class="edge">
<title>A6&#45;&gt;A7</title>
<path fill="none" stroke="#000000" d="M81.5,-73.5457C81.5,-64.0925 81.5,-54.5311 81.5,-46.068"/>
<polygon fill="none" stroke="#000000" points="81.5001,-73.7316 85.5,-79.7316 81.5,-85.7316 77.5,-79.7315 81.5001,-73.7316"/>
<polygon fill="#000000" stroke="#000000" points="81.5,-36.0265 86.0001,-46.0264 81.5,-41.0265 81.5001,-46.0265 81.5001,-46.0265 81.5001,-46.0265 81.5,-41.0265 77.0001,-46.0265 81.5,-36.0265 81.5,-36.0265"/>
</g>
<!-- A8 -->
<g id="node9" class="node">
<title>A8</title>
<polygon fill="none" stroke="#000000" points="189.5,-820 189.5,-864 351.5,-864 351.5,-820 189.5,-820"/>
<text text-anchor="start" x="199.369" y="-845" font-family="Helvetica,sans-Serif" font-size="10.00" fill="#000000">&lt;&lt;UniformGeneratorInterface&gt;&gt;</text>
<text text-anchor="start" x="229.1085" y="-833" font-family="Helvetica,sans-Serif" font-size="10.00" fill="#000000">IUniformGenerator</text>
<polygon fill="none" stroke="#000000" points="189.5,-776 189.5,-820 351.5,-820 351.5,-776 189.5,-776"/>
<text text-anchor="start" x="242.4455" y="-801" font-family="Helvetica,sans-Serif" font-size="10.00" fill="#000000">getNumber()</text>
<text text-anchor="start" x="235.5025" y="-789" font-family="Helvetica,sans-Serif" font-size="10.00" fill="#000000">setDistribution()</text>
</g>
<!-- A9 -->
<g id="node10" class="node">
<title>A9</title>
<polygon fill="none" stroke="#000000" points="220.5,-682 220.5,-726 320.5,-726 320.5,-682 220.5,-682"/>
<text text-anchor="start" x="230.498" y="-707" font-family="Helvetica,sans-Serif" font-size="10.00" fill="#000000">UniformGenerator</text>
<text text-anchor="start" x="246.8895" y="-695" font-family="Helvetica,sans-Serif" font-size="10.00" fill="#000000">(Concrete)</text>
<polygon fill="none" stroke="#000000" points="220.5,-650 220.5,-682 320.5,-682 320.5,-650 220.5,-650"/>
<text text-anchor="start" x="250.213" y="-663" font-family="Helvetica,sans-Serif" font-size="10.00" fill="#000000">as above</text>
</g>
<!-- A8&#45;&gt;A9 -->
<g id="edge8" class="edge">
<title>A8&#45;&gt;A9</title>
<path fill="none" stroke="#000000" stroke-dasharray="5,2" d="M270.5,-765.3212C270.5,-752.1899 270.5,-738.4424 270.5,-726.2422"/>
<polygon fill="none" stroke="#000000" points="267.0001,-765.6787 270.5,-775.6787 274.0001,-765.6787 267.0001,-765.6787"/>
</g>
</g>
</svg>
